<mxfile host="app.diagrams.net" modified="2024-06-24T12:09:32.690Z" agent="Mozilla/5.0 (Windows NT 10.0; Win64; x64) AppleWebKit/537.36 (KHTML, like Gecko) Chrome/126.0.0.0 Safari/537.36" etag="J9gDB0nu6nXjQ8h14Yqq" version="24.6.2" type="github">
  <diagram name="第 1 页" id="oeDQUQiur7928Zk9zg23">
    <mxGraphModel dx="1235" dy="614" grid="1" gridSize="10" guides="1" tooltips="1" connect="1" arrows="1" fold="1" page="1" pageScale="1" pageWidth="827" pageHeight="1169" math="0" shadow="0">
      <root>
        <mxCell id="0" />
        <mxCell id="1" parent="0" />
        <mxCell id="4qGxiepnsyVXo2U43kij-2" value="&lt;b&gt;&lt;font style=&quot;font-size: 16px;&quot;&gt;ProcessState&lt;/font&gt;&lt;/b&gt;" style="rounded=0;whiteSpace=wrap;html=1;fillColor=#dae8fc;strokeColor=#6c8ebf;" vertex="1" parent="1">
          <mxGeometry x="160" y="150" width="210" height="60" as="geometry" />
        </mxCell>
        <mxCell id="4qGxiepnsyVXo2U43kij-4" value="binder_open" style="rounded=1;whiteSpace=wrap;html=1;fillColor=#f5f5f5;fontColor=#333333;strokeColor=#666666;" vertex="1" parent="1">
          <mxGeometry x="40" y="30" width="120" height="60" as="geometry" />
        </mxCell>
        <mxCell id="4qGxiepnsyVXo2U43kij-5" value="binder_mmap" style="rounded=1;whiteSpace=wrap;html=1;fillColor=#d5e8d4;strokeColor=#82b366;" vertex="1" parent="1">
          <mxGeometry x="380" y="30" width="120" height="60" as="geometry" />
        </mxCell>
        <mxCell id="4qGxiepnsyVXo2U43kij-14" style="edgeStyle=orthogonalEdgeStyle;rounded=0;orthogonalLoop=1;jettySize=auto;html=1;entryX=0;entryY=0.5;entryDx=0;entryDy=0;" edge="1" parent="1" source="4qGxiepnsyVXo2U43kij-8" target="4qGxiepnsyVXo2U43kij-9">
          <mxGeometry relative="1" as="geometry" />
        </mxCell>
        <mxCell id="4qGxiepnsyVXo2U43kij-8" value="getContextObject" style="rounded=1;whiteSpace=wrap;html=1;fillColor=#ffe6cc;strokeColor=#d79b00;" vertex="1" parent="1">
          <mxGeometry x="20" y="270" width="120" height="60" as="geometry" />
        </mxCell>
        <mxCell id="4qGxiepnsyVXo2U43kij-9" value="getStrongProxyForHandle(int32_t handle)" style="rounded=1;whiteSpace=wrap;html=1;fillColor=#f8cecc;strokeColor=#b85450;" vertex="1" parent="1">
          <mxGeometry x="390" y="270" width="250" height="60" as="geometry" />
        </mxCell>
        <mxCell id="4qGxiepnsyVXo2U43kij-10" value="" style="shape=flexArrow;endArrow=classic;html=1;rounded=0;entryX=0.583;entryY=1.04;entryDx=0;entryDy=0;entryPerimeter=0;exitX=1;exitY=0.5;exitDx=0;exitDy=0;fillColor=#b0e3e6;strokeColor=#0e8088;" edge="1" parent="1" source="4qGxiepnsyVXo2U43kij-2" target="4qGxiepnsyVXo2U43kij-5">
          <mxGeometry width="50" height="50" relative="1" as="geometry">
            <mxPoint x="390" y="180" as="sourcePoint" />
            <mxPoint x="440" y="130" as="targetPoint" />
          </mxGeometry>
        </mxCell>
        <mxCell id="4qGxiepnsyVXo2U43kij-11" value="" style="shape=flexArrow;endArrow=classic;html=1;rounded=0;entryX=0.563;entryY=1.027;entryDx=0;entryDy=0;entryPerimeter=0;exitX=0;exitY=0.5;exitDx=0;exitDy=0;fillColor=#b0e3e6;strokeColor=#0e8088;" edge="1" parent="1" source="4qGxiepnsyVXo2U43kij-2" target="4qGxiepnsyVXo2U43kij-4">
          <mxGeometry width="50" height="50" relative="1" as="geometry">
            <mxPoint x="90" y="180" as="sourcePoint" />
            <mxPoint x="140" y="130" as="targetPoint" />
          </mxGeometry>
        </mxCell>
        <mxCell id="4qGxiepnsyVXo2U43kij-12" value="" style="shape=flexArrow;endArrow=classic;html=1;rounded=0;fillColor=#b0e3e6;strokeColor=#0e8088;" edge="1" parent="1">
          <mxGeometry width="50" height="50" relative="1" as="geometry">
            <mxPoint x="210" y="220" as="sourcePoint" />
            <mxPoint x="150" y="290" as="targetPoint" />
          </mxGeometry>
        </mxCell>
        <mxCell id="4qGxiepnsyVXo2U43kij-13" value="" style="shape=flexArrow;endArrow=classic;html=1;rounded=0;entryX=0;entryY=0.5;entryDx=0;entryDy=0;fillColor=#b0e3e6;strokeColor=#0e8088;" edge="1" parent="1" target="4qGxiepnsyVXo2U43kij-9">
          <mxGeometry width="50" height="50" relative="1" as="geometry">
            <mxPoint x="330" y="220" as="sourcePoint" />
            <mxPoint x="160" y="300" as="targetPoint" />
          </mxGeometry>
        </mxCell>
        <mxCell id="4qGxiepnsyVXo2U43kij-21" style="edgeStyle=orthogonalEdgeStyle;rounded=0;orthogonalLoop=1;jettySize=auto;html=1;" edge="1" parent="1" source="4qGxiepnsyVXo2U43kij-15">
          <mxGeometry relative="1" as="geometry">
            <mxPoint x="320" y="580" as="targetPoint" />
          </mxGeometry>
        </mxCell>
        <mxCell id="4qGxiepnsyVXo2U43kij-15" value="handle_entry0、handle_entry1......" style="rounded=1;whiteSpace=wrap;html=1;" vertex="1" parent="1">
          <mxGeometry x="160" y="440" width="320" height="60" as="geometry" />
        </mxCell>
        <mxCell id="4qGxiepnsyVXo2U43kij-16" value="" style="endArrow=classic;html=1;rounded=0;exitX=0.474;exitY=0.987;exitDx=0;exitDy=0;exitPerimeter=0;entryX=0.536;entryY=-0.02;entryDx=0;entryDy=0;entryPerimeter=0;" edge="1" parent="1" source="4qGxiepnsyVXo2U43kij-9" target="4qGxiepnsyVXo2U43kij-15">
          <mxGeometry width="50" height="50" relative="1" as="geometry">
            <mxPoint x="390" y="370" as="sourcePoint" />
            <mxPoint x="515" y="370" as="targetPoint" />
          </mxGeometry>
        </mxCell>
        <mxCell id="4qGxiepnsyVXo2U43kij-18" value="&lt;font style=&quot;font-size: 14px;&quot;&gt;&lt;b&gt;BpBinder&lt;/b&gt;&lt;/font&gt;" style="rounded=1;whiteSpace=wrap;html=1;fillColor=#dae8fc;strokeColor=#6c8ebf;" vertex="1" parent="1">
          <mxGeometry x="230" y="585" width="200" height="60" as="geometry" />
        </mxCell>
        <mxCell id="4qGxiepnsyVXo2U43kij-19" value="handle" style="rounded=1;whiteSpace=wrap;html=1;fillColor=#ffe6cc;strokeColor=#d79b00;" vertex="1" parent="1">
          <mxGeometry x="10" y="585" width="120" height="60" as="geometry" />
        </mxCell>
        <mxCell id="4qGxiepnsyVXo2U43kij-29" style="edgeStyle=orthogonalEdgeStyle;rounded=0;orthogonalLoop=1;jettySize=auto;html=1;entryX=0.5;entryY=0;entryDx=0;entryDy=0;" edge="1" parent="1" source="4qGxiepnsyVXo2U43kij-20" target="4qGxiepnsyVXo2U43kij-26">
          <mxGeometry relative="1" as="geometry" />
        </mxCell>
        <mxCell id="4qGxiepnsyVXo2U43kij-20" value="transact" style="rounded=1;whiteSpace=wrap;html=1;fillColor=#d5e8d4;strokeColor=#82b366;" vertex="1" parent="1">
          <mxGeometry x="270" y="730" width="120" height="60" as="geometry" />
        </mxCell>
        <mxCell id="4qGxiepnsyVXo2U43kij-22" value="" style="shape=flexArrow;endArrow=classic;html=1;rounded=0;entryX=1;entryY=0.5;entryDx=0;entryDy=0;exitX=0;exitY=0.5;exitDx=0;exitDy=0;fillColor=#647687;strokeColor=#314354;" edge="1" parent="1" source="4qGxiepnsyVXo2U43kij-18" target="4qGxiepnsyVXo2U43kij-19">
          <mxGeometry width="50" height="50" relative="1" as="geometry">
            <mxPoint x="360" y="570" as="sourcePoint" />
            <mxPoint x="410" y="520" as="targetPoint" />
          </mxGeometry>
        </mxCell>
        <mxCell id="4qGxiepnsyVXo2U43kij-23" value="" style="shape=flexArrow;endArrow=classic;html=1;rounded=0;fillColor=#647687;strokeColor=#314354;" edge="1" parent="1" target="4qGxiepnsyVXo2U43kij-20">
          <mxGeometry width="50" height="50" relative="1" as="geometry">
            <mxPoint x="330" y="650" as="sourcePoint" />
            <mxPoint x="240" y="700" as="targetPoint" />
          </mxGeometry>
        </mxCell>
        <mxCell id="4qGxiepnsyVXo2U43kij-25" value="&lt;font style=&quot;font-size: 14px;&quot;&gt;&lt;b&gt;IPCThreadState&lt;/b&gt;&lt;/font&gt;" style="rounded=1;whiteSpace=wrap;html=1;fillColor=#dae8fc;strokeColor=#6c8ebf;" vertex="1" parent="1">
          <mxGeometry x="530" y="870" width="120" height="60" as="geometry" />
        </mxCell>
        <mxCell id="4qGxiepnsyVXo2U43kij-26" value="transact" style="rounded=1;whiteSpace=wrap;html=1;fillColor=#60a917;fontColor=#ffffff;strokeColor=#2D7600;" vertex="1" parent="1">
          <mxGeometry x="270" y="870" width="120" height="60" as="geometry" />
        </mxCell>
        <mxCell id="4qGxiepnsyVXo2U43kij-27" value="decWeakHandle" style="rounded=1;whiteSpace=wrap;html=1;fillColor=#6a00ff;fontColor=#ffffff;strokeColor=#3700CC;" vertex="1" parent="1">
          <mxGeometry x="650" y="760" width="120" height="60" as="geometry" />
        </mxCell>
        <mxCell id="4qGxiepnsyVXo2U43kij-28" value="incWeakhandle" style="rounded=1;whiteSpace=wrap;html=1;fillColor=#d80073;fontColor=#ffffff;strokeColor=#A50040;" vertex="1" parent="1">
          <mxGeometry x="430" y="760" width="120" height="60" as="geometry" />
        </mxCell>
        <mxCell id="4qGxiepnsyVXo2U43kij-30" value="" style="shape=flexArrow;endArrow=classic;html=1;rounded=0;exitX=0;exitY=0.5;exitDx=0;exitDy=0;entryX=1;entryY=0.5;entryDx=0;entryDy=0;fillColor=#fa6800;strokeColor=#C73500;" edge="1" parent="1" source="4qGxiepnsyVXo2U43kij-25" target="4qGxiepnsyVXo2U43kij-26">
          <mxGeometry width="50" height="50" relative="1" as="geometry">
            <mxPoint x="360" y="880" as="sourcePoint" />
            <mxPoint x="410" y="830" as="targetPoint" />
          </mxGeometry>
        </mxCell>
        <mxCell id="4qGxiepnsyVXo2U43kij-31" value="" style="shape=flexArrow;endArrow=classic;html=1;rounded=0;entryX=0.6;entryY=0.993;entryDx=0;entryDy=0;entryPerimeter=0;exitX=0.407;exitY=0;exitDx=0;exitDy=0;exitPerimeter=0;fillColor=#fa6800;strokeColor=#C73500;" edge="1" parent="1" source="4qGxiepnsyVXo2U43kij-25" target="4qGxiepnsyVXo2U43kij-28">
          <mxGeometry width="50" height="50" relative="1" as="geometry">
            <mxPoint x="360" y="880" as="sourcePoint" />
            <mxPoint x="410" y="830" as="targetPoint" />
          </mxGeometry>
        </mxCell>
        <mxCell id="4qGxiepnsyVXo2U43kij-32" value="" style="shape=flexArrow;endArrow=classic;html=1;rounded=0;entryX=0.75;entryY=1;entryDx=0;entryDy=0;fillColor=#fa6800;strokeColor=#C73500;" edge="1" parent="1" target="4qGxiepnsyVXo2U43kij-27">
          <mxGeometry width="50" height="50" relative="1" as="geometry">
            <mxPoint x="660" y="900" as="sourcePoint" />
            <mxPoint x="740" y="830" as="targetPoint" />
          </mxGeometry>
        </mxCell>
        <mxCell id="4qGxiepnsyVXo2U43kij-33" value="mIn" style="rounded=1;whiteSpace=wrap;html=1;fillColor=#0050ef;fontColor=#ffffff;strokeColor=#001DBC;" vertex="1" parent="1">
          <mxGeometry x="430" y="990" width="120" height="60" as="geometry" />
        </mxCell>
        <mxCell id="4qGxiepnsyVXo2U43kij-34" value="mOut" style="rounded=1;whiteSpace=wrap;html=1;fillColor=#a20025;fontColor=#ffffff;strokeColor=#6F0000;" vertex="1" parent="1">
          <mxGeometry x="640" y="990" width="120" height="60" as="geometry" />
        </mxCell>
        <mxCell id="4qGxiepnsyVXo2U43kij-35" value="" style="shape=flexArrow;endArrow=classic;html=1;rounded=0;exitX=0.5;exitY=1;exitDx=0;exitDy=0;entryX=0.5;entryY=0;entryDx=0;entryDy=0;fillColor=#fa6800;strokeColor=#C73500;" edge="1" parent="1" source="4qGxiepnsyVXo2U43kij-25" target="4qGxiepnsyVXo2U43kij-33">
          <mxGeometry width="50" height="50" relative="1" as="geometry">
            <mxPoint x="350" y="1000" as="sourcePoint" />
            <mxPoint x="400" y="950" as="targetPoint" />
          </mxGeometry>
        </mxCell>
        <mxCell id="4qGxiepnsyVXo2U43kij-36" value="" style="shape=flexArrow;endArrow=classic;html=1;rounded=0;fillColor=#fa6800;strokeColor=#C73500;" edge="1" parent="1">
          <mxGeometry width="50" height="50" relative="1" as="geometry">
            <mxPoint x="590" y="930" as="sourcePoint" />
            <mxPoint x="710" y="980" as="targetPoint" />
          </mxGeometry>
        </mxCell>
        <mxCell id="4qGxiepnsyVXo2U43kij-37" value="" style="endArrow=classic;html=1;rounded=0;exitX=0.812;exitY=0.977;exitDx=0;exitDy=0;exitPerimeter=0;" edge="1" parent="1" source="4qGxiepnsyVXo2U43kij-18" target="4qGxiepnsyVXo2U43kij-28">
          <mxGeometry width="50" height="50" relative="1" as="geometry">
            <mxPoint x="360" y="790" as="sourcePoint" />
            <mxPoint x="410" y="740" as="targetPoint" />
          </mxGeometry>
        </mxCell>
        <mxCell id="4qGxiepnsyVXo2U43kij-38" value="" style="endArrow=classic;html=1;rounded=0;exitX=1;exitY=0.5;exitDx=0;exitDy=0;entryX=0.5;entryY=0;entryDx=0;entryDy=0;" edge="1" parent="1" source="4qGxiepnsyVXo2U43kij-18" target="4qGxiepnsyVXo2U43kij-27">
          <mxGeometry width="50" height="50" relative="1" as="geometry">
            <mxPoint x="610" y="660" as="sourcePoint" />
            <mxPoint x="660" y="610" as="targetPoint" />
          </mxGeometry>
        </mxCell>
      </root>
    </mxGraphModel>
  </diagram>
</mxfile>
